<?xml version="1.0" encoding="utf-8"?>
<!-- Generator: Adobe Illustrator 24.1.1, SVG Export Plug-In . SVG Version: 6.00 Build 0)  -->
<svg version="1.1" id="Camada_1" xmlns="http://www.w3.org/2000/svg" xmlns:xlink="http://www.w3.org/1999/xlink" x="0px" y="0px"
	 viewBox="0 0 800 800" style="enable-background:new 0 0 800 800;" xml:space="preserve">
<path style="fill-rule:evenodd;clip-rule:evenodd;fill:#2060AA;enable-background:new    ;" d="M400,100c-247.1,0-300,52.9-300,300
	s52.9,300,300,300s300-53,300-300S647,100,400,100z M507.5,433.9c26.2-15,26.2-52.8,0-67.8l-148.1-84.6c-22.8-13-51.1,3.4-51.1,29.6
	v177.8c0,26.2,28.3,42.6,51.1,29.6L507.5,433.9z"/>
<g>
	<path style="fill:#323232;" d="M400,733.3c-119.5,0-210.5-11.4-266.2-67.1C78.1,610.5,66.7,519.5,66.7,400
		c0-119.5,11.4-210.5,67.1-266.2C189.5,78.1,280.5,66.7,400,66.7c119.5,0,210.5,11.4,266.2,67.1c55.7,55.7,67.1,146.7,67.1,266.2
		c0,119.5-11.4,210.5-67.1,266.2C610.5,721.9,519.5,733.3,400,733.3z M400,133.3c-121.8,0-185.3,13.8-219.1,47.6
		c-33.8,33.8-47.6,97.3-47.6,219.1s13.8,185.3,47.6,219.1c33.8,33.8,97.3,47.6,219.1,47.6s185.3-13.8,219.1-47.6
		c33.8-33.8,47.6-97.3,47.6-219.1s-13.8-185.3-47.6-219.1C585.3,147.1,521.8,133.3,400,133.3z"/>
</g>
<g>
	<path style="fill:#323232;" d="M342.5,548.1c-10.2,0-20.4-2.7-29.7-8.1c-18.4-10.7-29.4-29.8-29.4-51.1V311.1
		c0-21.3,11-40.4,29.4-51.1c18.4-10.7,40.5-10.8,59-0.2l148.1,84.6c20.2,11.5,32.3,32.3,32.3,55.6c0,23.3-12.1,44.1-32.3,55.6
		l-148.1,84.6C362.6,545.5,352.5,548.1,342.5,548.1z M350,324.1v151.8L482.8,400L350,324.1z M486.8,402.3L486.8,402.3L486.8,402.3z"
		/>
</g>
</svg>
